<mxfile host="app.diagrams.net" modified="2024-05-01T14:49:47.399Z" agent="Mozilla/5.0 (Macintosh; Intel Mac OS X 10_15_7) AppleWebKit/605.1.15 (KHTML, like Gecko) Version/17.2 Safari/605.1.15" etag="xN5QkkKT841nN6VtACbb" version="24.2.8" type="device">
  <diagram name="Page-1" id="hP0ukMA7o1bAkJeUap9s">
    <mxGraphModel dx="634" dy="529" grid="1" gridSize="10" guides="1" tooltips="1" connect="1" arrows="1" fold="1" page="1" pageScale="1" pageWidth="2336" pageHeight="1654" math="0" shadow="0">
      <root>
        <mxCell id="0" />
        <mxCell id="1" parent="0" />
        <mxCell id="FmzdMZSDMp8VwVP9gI4b-17" value="" style="shape=cube;whiteSpace=wrap;html=1;boundedLbl=1;backgroundOutline=1;darkOpacity=0.05;darkOpacity2=0.1;size=10;rotation=0;" vertex="1" parent="1">
          <mxGeometry x="815" y="277.5" width="70" height="80" as="geometry" />
        </mxCell>
        <mxCell id="FmzdMZSDMp8VwVP9gI4b-1" value="&lt;p&gt;&amp;lt;&amp;lt;System&amp;gt;&amp;gt;&lt;/p&gt;&lt;p&gt;&lt;b&gt;Hotel Delivery Bot&lt;/b&gt;&lt;/p&gt;" style="shape=rect;html=1;overflow=fill;whiteSpace=wrap;align=center;" vertex="1" parent="1">
          <mxGeometry x="520" y="280" width="180" height="70" as="geometry" />
        </mxCell>
        <mxCell id="FmzdMZSDMp8VwVP9gI4b-2" value="&amp;lt;&amp;lt;User&amp;gt;&amp;gt;&lt;br&gt;&lt;div&gt;&lt;b&gt;Hotel Staff&lt;/b&gt;&lt;/div&gt;" style="shape=umlActor;html=1;verticalLabelPosition=bottom;verticalAlign=top;align=center;" vertex="1" parent="1">
          <mxGeometry x="370" y="277" width="30" height="60" as="geometry" />
        </mxCell>
        <mxCell id="FmzdMZSDMp8VwVP9gI4b-3" value="&amp;lt;&amp;lt;User&amp;gt;&amp;gt;&lt;br&gt;&lt;div&gt;&lt;b&gt;Hotel Guest&lt;/b&gt;&lt;/div&gt;" style="shape=umlActor;html=1;verticalLabelPosition=bottom;verticalAlign=top;align=center;" vertex="1" parent="1">
          <mxGeometry x="439" y="120" width="30" height="60" as="geometry" />
        </mxCell>
        <mxCell id="FmzdMZSDMp8VwVP9gI4b-5" value="" style="endArrow=none;html=1;rounded=0;" edge="1" parent="1">
          <mxGeometry width="50" height="50" relative="1" as="geometry">
            <mxPoint x="420" y="314.66" as="sourcePoint" />
            <mxPoint x="520" y="314.66" as="targetPoint" />
          </mxGeometry>
        </mxCell>
        <mxCell id="FmzdMZSDMp8VwVP9gI4b-6" value="" style="endArrow=none;html=1;rounded=0;entryX=0.106;entryY=0;entryDx=0;entryDy=0;entryPerimeter=0;" edge="1" parent="1">
          <mxGeometry width="50" height="50" relative="1" as="geometry">
            <mxPoint x="500" y="210" as="sourcePoint" />
            <mxPoint x="581.0799999999999" y="280" as="targetPoint" />
          </mxGeometry>
        </mxCell>
        <mxCell id="FmzdMZSDMp8VwVP9gI4b-8" value="" style="shape=cube;whiteSpace=wrap;html=1;boundedLbl=1;backgroundOutline=1;darkOpacity=0.05;darkOpacity2=0.1;size=10;rotation=0;" vertex="1" parent="1">
          <mxGeometry x="480" y="420" width="70" height="80" as="geometry" />
        </mxCell>
        <mxCell id="FmzdMZSDMp8VwVP9gI4b-9" value="" style="shape=mxgraph.signs.safety.store_right_up_1;html=1;pointerEvents=1;fillColor=#000000;strokeColor=none;verticalLabelPosition=bottom;verticalAlign=top;align=center;sketch=0;" vertex="1" parent="1">
          <mxGeometry x="500" y="440" width="40" height="49" as="geometry" />
        </mxCell>
        <mxCell id="FmzdMZSDMp8VwVP9gI4b-10" value="Lift System" style="text;html=1;align=center;verticalAlign=middle;resizable=0;points=[];autosize=1;strokeColor=none;fillColor=none;" vertex="1" parent="1">
          <mxGeometry x="460" y="508" width="80" height="30" as="geometry" />
        </mxCell>
        <mxCell id="FmzdMZSDMp8VwVP9gI4b-11" value="" style="shape=cube;whiteSpace=wrap;html=1;boundedLbl=1;backgroundOutline=1;darkOpacity=0.05;darkOpacity2=0.1;size=10;rotation=0;" vertex="1" parent="1">
          <mxGeometry x="667" y="420" width="70" height="80" as="geometry" />
        </mxCell>
        <mxCell id="FmzdMZSDMp8VwVP9gI4b-12" value="" style="shape=mxgraph.signs.sports.sleeping_shelter;html=1;pointerEvents=1;fillColor=#000000;strokeColor=none;verticalLabelPosition=bottom;verticalAlign=top;align=center;sketch=0;" vertex="1" parent="1">
          <mxGeometry x="683" y="444.5" width="44" height="40" as="geometry" />
        </mxCell>
        <mxCell id="FmzdMZSDMp8VwVP9gI4b-13" value="" style="endArrow=none;html=1;rounded=0;exitX=0.5;exitY=-0.018;exitDx=0;exitDy=0;exitPerimeter=0;entryX=0.336;entryY=0.995;entryDx=0;entryDy=0;entryPerimeter=0;" edge="1" parent="1" source="FmzdMZSDMp8VwVP9gI4b-8" target="FmzdMZSDMp8VwVP9gI4b-1">
          <mxGeometry width="50" height="50" relative="1" as="geometry">
            <mxPoint x="445" y="350" as="sourcePoint" />
            <mxPoint x="545" y="350" as="targetPoint" />
          </mxGeometry>
        </mxCell>
        <mxCell id="FmzdMZSDMp8VwVP9gI4b-14" value="" style="endArrow=none;html=1;rounded=0;exitX=0;exitY=0;exitDx=30;exitDy=0;exitPerimeter=0;entryX=0.597;entryY=1.004;entryDx=0;entryDy=0;entryPerimeter=0;" edge="1" parent="1" source="FmzdMZSDMp8VwVP9gI4b-11" target="FmzdMZSDMp8VwVP9gI4b-1">
          <mxGeometry width="50" height="50" relative="1" as="geometry">
            <mxPoint x="650" y="420" as="sourcePoint" />
            <mxPoint x="680" y="351" as="targetPoint" />
          </mxGeometry>
        </mxCell>
        <mxCell id="FmzdMZSDMp8VwVP9gI4b-15" value="Hotel Environment" style="text;html=1;align=center;verticalAlign=middle;resizable=0;points=[];autosize=1;strokeColor=none;fillColor=none;" vertex="1" parent="1">
          <mxGeometry x="645" y="508" width="120" height="30" as="geometry" />
        </mxCell>
        <mxCell id="FmzdMZSDMp8VwVP9gI4b-16" value="" style="shape=mxgraph.signs.sports.fish_cleaning;html=1;pointerEvents=1;fillColor=#000000;strokeColor=none;verticalLabelPosition=bottom;verticalAlign=top;align=center;sketch=0;" vertex="1" parent="1">
          <mxGeometry x="830" y="307.75" width="50" height="36.5" as="geometry" />
        </mxCell>
        <mxCell id="FmzdMZSDMp8VwVP9gI4b-18" value="" style="endArrow=none;html=1;rounded=0;" edge="1" parent="1">
          <mxGeometry width="50" height="50" relative="1" as="geometry">
            <mxPoint x="700" y="313.16" as="sourcePoint" />
            <mxPoint x="800" y="313.16" as="targetPoint" />
          </mxGeometry>
        </mxCell>
        <mxCell id="FmzdMZSDMp8VwVP9gI4b-19" value="Delivery Items" style="text;html=1;align=center;verticalAlign=middle;resizable=0;points=[];autosize=1;strokeColor=none;fillColor=none;" vertex="1" parent="1">
          <mxGeometry x="800" y="357.5" width="100" height="30" as="geometry" />
        </mxCell>
        <mxCell id="FmzdMZSDMp8VwVP9gI4b-21" value="" style="endArrow=none;html=1;rounded=0;" edge="1" parent="1">
          <mxGeometry width="50" height="50" relative="1" as="geometry">
            <mxPoint x="625" y="280" as="sourcePoint" />
            <mxPoint x="710" y="210" as="targetPoint" />
          </mxGeometry>
        </mxCell>
        <mxCell id="FmzdMZSDMp8VwVP9gI4b-22" value="" style="shape=cube;whiteSpace=wrap;html=1;boundedLbl=1;backgroundOutline=1;darkOpacity=0.05;darkOpacity2=0.1;size=10;rotation=0;" vertex="1" parent="1">
          <mxGeometry x="727" y="140" width="70" height="80" as="geometry" />
        </mxCell>
        <mxCell id="FmzdMZSDMp8VwVP9gI4b-23" value="" style="shape=mxgraph.signs.tech.ethernet;html=1;pointerEvents=1;fillColor=#000000;strokeColor=none;verticalLabelPosition=bottom;verticalAlign=top;align=center;sketch=0;" vertex="1" parent="1">
          <mxGeometry x="742.5" y="173" width="49.5" height="24" as="geometry" />
        </mxCell>
        <mxCell id="FmzdMZSDMp8VwVP9gI4b-24" value="Other Delivery Bots" style="text;html=1;align=center;verticalAlign=middle;resizable=0;points=[];autosize=1;strokeColor=none;fillColor=none;" vertex="1" parent="1">
          <mxGeometry x="710" y="220" width="130" height="30" as="geometry" />
        </mxCell>
      </root>
    </mxGraphModel>
  </diagram>
</mxfile>
